<svg width="588" height="51" viewBox="0 0 588 51" fill="none" xmlns="http://www.w3.org/2000/svg">
<g clip-path="url(#clip0_302_4)">
<path d="M449.305 2.95385C438.721 2.4 427.953 1.84615 417.186 1.29231C413.719 1.10769 410.069 1.10769 406.601 0.923077C398.937 0.738462 391.272 0.553846 383.607 0.369231C379.409 0.184615 375.03 0.184615 370.832 0C369.555 0 368.277 0 367.182 0C364.445 0 361.707 0 358.787 0C346.195 0 333.603 0 321.011 0C318.091 0 314.988 0 312.068 0.184615C304.586 0.369231 297.286 0.369231 289.804 0.553846C281.409 0.738462 273.014 0.738462 264.619 0.923077C251.115 1.29231 237.427 1.66154 223.923 2.03077C216.075 2.21538 208.228 2.4 200.381 2.58462C186.876 3.13846 173.371 3.69231 159.867 4.24615C152.384 4.61538 145.084 4.8 137.602 5.16923C123.55 6.09231 109.498 6.83077 95.4455 7.56923C87.9631 7.93846 80.4808 8.30769 72.9984 8.86154C59.1287 9.96923 45.0765 11.2615 31.2068 12.5538C28.2869 12.7385 25.1845 13.1077 22.082 13.2923C16.2422 13.8462 10.2198 14.7692 4.19741 15.5077C3.83242 15.5077 3.46743 15.6923 3.10243 15.6923C2.37245 15.6923 1.82496 16.0615 1.27747 16.6154C0.364992 17.5385 0 18.6462 0 19.7538C0 20.8615 0.364992 21.9692 1.27747 22.7077C2.00746 23.4462 3.28493 24 4.19741 24C11.4973 23.2615 18.6146 22.3385 25.9144 21.6C32.6668 21.0462 39.4192 20.4923 46.1715 19.9385C53.4714 19.3846 60.7712 18.6462 68.2536 18.0923C71.1735 17.9077 74.0934 17.5385 77.1959 17.3538C88.6931 16.8 100.008 16.0615 111.505 15.5077C118.622 15.1385 125.74 14.7692 132.857 14.4C135.777 14.2154 138.697 14.0308 141.617 13.8462C152.932 13.2923 164.247 12.9231 175.561 12.3692C182.496 12.1846 189.248 11.8154 196.183 11.6308C198.556 11.6308 200.746 11.4462 203.118 11.4462C215.345 11.0769 227.573 10.8923 239.8 10.5231C246.552 10.3385 253.487 10.1538 260.239 9.96923C262.612 9.96923 265.167 9.78461 267.539 9.78461C280.132 9.6 292.724 9.6 305.498 9.41538C313.346 9.41538 321.193 9.23077 329.041 9.23077C342.363 9.23077 355.867 9.23077 369.19 9.41538C371.745 9.41538 374.482 9.6 377.037 9.6C384.519 9.78462 391.819 9.96923 399.302 10.3385C404.776 10.5231 410.434 10.7077 415.909 10.8923C419.924 11.0769 423.756 11.2615 427.771 11.4462C439.268 12 450.948 12.7385 462.445 13.4769C465.365 13.6615 468.285 13.8462 471.205 14.0308C474.307 14.2154 477.592 14.4 480.695 14.7692C481.242 14.7692 481.607 14.9538 482.155 15.1385C483.432 15.3231 484.527 15.3231 485.622 14.5846C486.717 14.0308 487.447 12.9231 487.812 11.8154C488.542 9.41538 487.082 6.83077 484.527 6.09231C482.337 5.53846 480.147 5.35385 478.14 4.98462C476.68 4.8 475.22 4.61538 473.76 4.61538C470.84 4.24615 467.92 4.24615 465.183 3.87692C460.073 3.69231 454.598 3.32308 449.305 2.95385Z" fill="#FCFB00"/>
</g>
<g clip-path="url(#clip1_302_4)">
<path d="M549.455 28.466C538.885 27.6798 528.132 26.8896 517.38 26.0993C513.917 25.8386 510.268 25.7584 506.805 25.4977C499.146 25.1447 491.488 24.7918 483.829 24.4388C479.636 24.162 475.257 24.0658 471.065 23.789C469.788 23.761 468.511 23.7329 467.416 23.7089C464.679 23.6487 461.942 23.5886 459.023 23.5245C446.434 23.2478 433.845 22.9712 421.256 22.6946C418.336 22.6305 415.235 22.5623 412.311 22.6827C404.827 22.7029 397.529 22.5426 390.044 22.5628C381.647 22.5629 373.255 22.3785 364.858 22.3787C351.348 22.4512 337.656 22.5196 324.147 22.5921C316.297 22.6043 308.448 22.6165 300.598 22.6287C287.084 22.8857 273.571 23.1428 260.057 23.3998C252.569 23.6046 245.266 23.6288 237.778 23.8336C223.709 24.4477 209.644 24.8773 195.579 25.3069C188.09 25.5117 180.601 25.7165 173.109 26.1058C159.218 26.9086 145.141 27.8919 131.246 28.8792C128.323 28.9996 125.213 29.3006 122.107 29.417C116.257 29.8424 110.215 30.633 104.178 31.239C103.813 31.231 103.444 31.4075 103.079 31.3995C102.35 31.3835 101.794 31.7406 101.235 32.2823C100.302 33.1851 99.9128 34.2845 99.8885 35.3919C99.8642 36.4993 100.205 37.6148 101.101 38.3731C101.814 39.1274 103.079 39.7092 103.992 39.7292C111.306 39.1513 118.442 38.3848 125.756 37.8069C132.519 37.4015 139.282 36.9961 146.045 36.5907C153.355 36.1974 160.669 35.6195 168.162 35.2301C171.085 35.1097 174.013 34.8047 177.118 34.6883C188.625 34.3871 199.953 33.8974 211.46 33.5963C218.584 33.3835 225.707 33.1707 232.831 32.9579C235.755 32.8375 238.678 32.717 241.601 32.5966C252.925 32.2914 264.245 32.1709 275.57 31.8657C282.507 31.8335 289.266 31.6127 296.203 31.5804C298.575 31.6325 300.768 31.4961 303.14 31.5482C315.373 31.4477 327.601 31.5317 339.833 31.4311C346.588 31.3949 353.525 31.3627 360.28 31.3264C362.652 31.3786 365.21 31.2501 367.582 31.3022C380.176 31.3943 392.765 31.6709 405.54 31.767C413.386 31.9393 421.235 31.9272 429.081 32.0995C442.4 32.3922 455.901 32.6889 469.216 33.1661C471.771 33.2222 474.503 33.4669 477.058 33.523C484.534 33.872 491.828 34.2169 499.301 34.7504C504.77 35.0553 510.422 35.3641 515.891 35.6689C519.901 35.9417 523.729 36.2105 527.739 36.4832C539.221 37.2895 550.882 38.2844 562.36 39.2752C565.275 39.5239 568.19 39.7727 571.106 40.0214C574.203 40.2741 577.483 40.5308 580.577 40.9681C581.124 40.9801 581.485 41.1727 582.028 41.3693C583.301 41.582 584.396 41.606 585.507 40.8918C586.614 40.3621 587.368 39.2707 587.757 38.1713C588.54 35.7879 587.137 33.1719 584.599 32.3775C582.422 31.7757 580.236 31.543 578.237 31.1297C576.782 30.9131 575.326 30.6965 573.867 30.6644C570.956 30.2311 568.036 30.167 565.308 29.7377C560.203 29.4409 554.738 28.9514 549.455 28.466Z" fill="#FCFB00"/>
</g>
<defs>
<clipPath id="clip0_302_4">
<rect width="488" height="24" fill="white"/>
</clipPath>
<clipPath id="clip1_302_4">
<rect width="488" height="24" fill="white" transform="translate(100.322 15.6428) rotate(1.25874)"/>
</clipPath>
</defs>
</svg>
