<svg width="187" height="183" viewBox="0 0 187 183" fill="none" xmlns="http://www.w3.org/2000/svg">
<path d="M110.141 58.0643C110.141 58.0643 125.308 10.4672 105.042 2.74988C82.5372 -5.81984 87.514 61.8901 87.514 61.8901C87.514 61.8901 38.4897 8.30657 27.9193 33.0373C18.1608 55.8684 66.7993 84.5259 66.7993 84.5259C66.7993 84.5259 -4.10071 91.0667 2.42424 118.799C9.12529 147.279 76.838 110.35 76.838 110.35C76.838 110.35 52.7721 167.193 76.838 178.895C103.596 191.906 110.141 110.35 110.141 110.35C110.141 110.35 166.754 163.999 182.164 138.087C197.328 112.589 128.306 84.5259 128.306 84.5259C128.306 84.5259 180.865 68.2795 174.197 45.7899C166.955 21.3613 110.141 58.0643 110.141 58.0643Z" stroke="#ABADBC" stroke-width="3.74729"/>
</svg>
